<?xml version="1.0" standalone="no"?>
<!DOCTYPE svg PUBLIC "-//W3C//DTD SVG 20010904//EN"
 "http://www.w3.org/TR/2001/REC-SVG-20010904/DTD/svg10.dtd">
<svg version="1.0" xmlns="http://www.w3.org/2000/svg"
 width="462.000000pt" height="540.000000pt" viewBox="0 0 462.000000 540.000000"
 preserveAspectRatio="xMidYMid meet">
<metadata>
Created by potrace 1.16, written by Peter Selinger 2001-2019
</metadata>
<g transform="translate(0.000000,540.000000) scale(0.100000,-0.100000)"
fill="#000000" stroke="none">
<path d="M2077 5156 c-10 -8 -75 -47 -143 -88 -69 -40 -140 -82 -158 -93 -18
-11 -87 -53 -154 -93 -108 -65 -141 -92 -113 -92 9 0 63 -51 126 -121 77 -84
205 -250 311 -404 47 -68 120 -224 159 -342 58 -173 128 -534 108 -554 -13
-13 -168 26 -225 56 -29 15 -73 42 -97 61 -24 19 -49 34 -54 34 -6 0 -18 6
-26 14 -9 7 -65 26 -126 42 -154 40 -315 40 -495 0 -129 -29 -139 -32 -278
-97 -140 -65 -290 -194 -377 -323 -62 -91 -118 -228 -144 -351 -46 -214 -42
-601 9 -892 60 -338 153 -629 284 -888 60 -117 59 -116 123 -215 67 -102 74
-111 132 -180 144 -171 297 -283 456 -333 136 -43 497 -84 598 -67 64 10 66
11 121 53 36 29 45 31 146 35 147 6 189 -1 245 -45 39 -29 59 -37 113 -43 152
-15 499 30 637 85 256 100 486 348 670 720 230 467 352 1060 316 1544 -16 217
-41 320 -109 461 -80 163 -135 227 -327 378 -23 18 -135 75 -202 103 -81 34
-215 65 -347 81 -191 22 -452 -36 -551 -121 -31 -27 -127 -78 -168 -89 l-37
-10 0 59 c0 45 3 59 15 59 64 0 405 169 405 201 0 4 9 10 19 14 21 6 178 157
224 215 67 84 88 116 131 203 56 115 85 232 93 367 5 104 -11 236 -36 304
l-11 29 -93 -7 c-209 -16 -350 -75 -482 -203 -56 -53 -135 -154 -135 -171 0
-5 -4 -12 -9 -14 -11 -4 -88 -166 -97 -205 -4 -15 -10 -32 -14 -38 -5 -5 -18
-55 -30 -110 -11 -54 -22 -100 -24 -102 -1 -1 -7 23 -14 55 -63 298 -106 467
-162 632 -11 30 -24 75 -30 100 -7 25 -18 59 -25 75 -8 17 -21 52 -30 80 -9
27 -20 54 -24 60 -4 5 -13 30 -20 55 -12 42 -49 130 -54 130 -1 0 -10 -7 -20
-14z"/>
</g>
</svg>
