<?xml version="1.0" standalone="no"?>
<!DOCTYPE svg PUBLIC "-//W3C//DTD SVG 20010904//EN"
 "http://www.w3.org/TR/2001/REC-SVG-20010904/DTD/svg10.dtd">
<svg version="1.0" xmlns="http://www.w3.org/2000/svg"
 width="720.000000pt" height="720.000000pt" viewBox="0 0 720.000000 720.000000"
 preserveAspectRatio="xMidYMid meet">

<g transform="translate(0.000000,720.000000) scale(0.100000,-0.100000)"
fill="#000000" stroke="none">
<path d="M3192 7188 c-6 -6 -51 -14 -99 -16 -49 -2 -92 -8 -97 -13 -6 -5 -36
-9 -67 -9 -32 0 -60 -4 -63 -9 -3 -5 -33 -12 -66 -16 -32 -4 -64 -13 -71 -21
-6 -8 -27 -14 -45 -14 -19 0 -42 -4 -52 -9 -21 -10 -95 -31 -140 -38 -18 -3
-35 -9 -38 -14 -3 -5 -13 -9 -22 -9 -15 0 -37 -9 -124 -52 -10 -4 -24 -8 -32
-8 -19 0 -104 -38 -111 -50 -3 -6 -17 -10 -31 -10 -13 0 -24 -4 -24 -9 0 -5
-13 -12 -30 -16 -16 -4 -32 -11 -35 -16 -4 -5 -12 -9 -20 -9 -8 0 -34 -13 -58
-30 -25 -16 -50 -30 -56 -30 -6 0 -30 -12 -54 -27 -23 -15 -64 -39 -92 -53
-49 -26 -206 -129 -255 -169 -14 -11 -29 -21 -33 -21 -4 0 -37 -23 -74 -51
-247 -189 -572 -522 -716 -735 -23 -34 -71 -104 -106 -155 -36 -52 -77 -116
-91 -144 -14 -27 -38 -69 -53 -92 -15 -24 -27 -49 -27 -58 0 -8 -4 -15 -8 -15
-4 0 -13 -12 -19 -27 -7 -16 -17 -35 -22 -43 -15 -23 -41 -87 -41 -99 0 -6 -4
-11 -10 -11 -5 0 -10 -11 -10 -24 0 -14 -4 -28 -10 -31 -12 -7 -50 -92 -50
-111 0 -15 -4 -25 -38 -91 -12 -23 -22 -51 -22 -62 0 -11 -4 -22 -9 -25 -4 -3
-11 -22 -14 -43 -9 -51 -30 -125 -42 -143 -5 -8 -8 -28 -6 -43 1 -16 -4 -36
-12 -45 -8 -9 -17 -41 -20 -71 -4 -30 -11 -59 -17 -65 -5 -5 -10 -35 -10 -66
0 -31 -4 -60 -9 -65 -5 -6 -11 -49 -13 -98 -2 -48 -10 -93 -16 -99 -17 -17
-17 -799 0 -816 6 -6 14 -51 16 -99 2 -49 8 -92 13 -98 5 -5 9 -34 9 -65 0
-31 5 -61 10 -66 6 -6 13 -35 17 -65 3 -30 12 -62 20 -71 8 -9 13 -29 12 -45
-2 -15 1 -35 6 -43 12 -18 33 -92 42 -143 3 -21 10 -40 14 -43 5 -3 9 -14 9
-25 0 -11 10 -39 22 -62 34 -66 38 -76 38 -91 0 -19 38 -104 50 -111 6 -3 10
-17 10 -31 0 -13 5 -24 10 -24 6 0 10 -5 10 -11 0 -12 26 -76 41 -99 5 -8 15
-27 22 -42 6 -16 15 -28 19 -28 4 0 8 -7 8 -15 0 -9 12 -34 27 -58 15 -23 39
-64 53 -92 14 -27 55 -92 91 -144 35 -51 83 -121 106 -155 144 -213 469 -546
716 -735 37 -28 70 -51 74 -51 4 0 19 -10 33 -21 49 -40 206 -143 255 -169 28
-14 69 -38 92 -53 24 -15 48 -27 54 -27 6 0 31 -13 56 -30 24 -16 50 -30 58
-30 8 0 16 -4 20 -9 3 -5 19 -12 35 -16 17 -4 30 -11 30 -16 0 -5 11 -9 24 -9
14 0 28 -4 31 -10 7 -12 92 -50 111 -50 8 0 22 -4 32 -8 87 -43 109 -52 124
-52 9 0 19 -4 22 -9 3 -5 20 -11 38 -14 45 -7 119 -28 140 -38 10 -5 33 -9 52
-9 18 0 39 -6 45 -14 7 -8 39 -17 71 -21 33 -4 63 -11 66 -16 3 -5 31 -9 63
-9 31 0 61 -4 66 -9 6 -5 49 -11 98 -13 48 -2 93 -10 99 -16 17 -17 799 -17
816 0 6 6 51 14 99 16 49 2 92 8 98 13 5 5 35 9 66 9 32 0 60 4 63 9 3 5 33
12 66 16 32 4 64 13 71 21 6 8 27 14 45 14 19 0 42 4 52 9 21 10 95 31 140 38
18 3 35 9 38 14 3 5 13 9 22 9 15 0 37 9 124 52 10 4 24 8 32 8 19 0 104 38
111 50 3 6 17 10 31 10 13 0 24 4 24 9 0 5 13 12 30 16 16 4 32 11 35 16 4 5
12 9 20 9 8 0 34 14 58 30 25 17 50 30 56 30 6 0 30 12 54 27 23 15 65 39 92
53 49 26 206 129 255 169 14 11 29 21 33 21 4 0 37 23 74 51 247 189 572 522
716 735 23 34 71 104 106 155 36 52 77 117 91 144 14 28 38 69 53 92 15 24 27
49 27 58 0 8 4 15 8 15 4 0 13 12 19 28 7 15 17 34 22 42 15 23 41 87 41 99 0
6 5 11 10 11 6 0 10 11 10 24 0 14 4 28 10 31 12 7 50 92 50 111 0 15 4 25 38
91 12 23 22 51 22 62 0 11 4 22 9 25 4 3 11 22 14 43 9 51 30 125 42 143 5 8
8 28 6 43 -1 16 4 36 12 45 8 9 17 41 20 71 4 30 11 59 17 65 5 5 10 35 10 66
0 31 4 60 9 66 5 5 11 48 13 97 2 48 10 93 16 99 17 17 17 799 0 816 -6 6 -14
51 -16 99 -2 49 -8 92 -13 97 -5 6 -9 35 -9 66 0 31 -5 61 -10 66 -6 6 -13 35
-17 65 -3 30 -12 62 -20 71 -8 9 -13 29 -12 45 2 15 -1 35 -6 43 -12 18 -33
92 -42 143 -3 21 -10 40 -14 43 -5 3 -9 14 -9 25 0 11 -10 39 -22 62 -34 66
-38 76 -38 91 0 19 -38 104 -50 111 -6 3 -10 17 -10 31 0 13 -4 24 -10 24 -5
0 -10 5 -10 11 0 12 -26 76 -41 99 -5 8 -15 27 -22 43 -6 15 -15 27 -19 27 -4
0 -8 7 -8 15 0 9 -12 34 -27 58 -15 23 -39 65 -53 92 -14 28 -55 92 -91 144
-35 51 -83 121 -106 155 -144 213 -469 546 -716 735 -37 28 -70 51 -74 51 -4
0 -19 10 -33 21 -49 40 -206 143 -255 169 -27 14 -69 38 -92 53 -24 15 -48 27
-54 27 -6 0 -31 14 -56 30 -24 17 -50 30 -58 30 -8 0 -16 4 -20 9 -3 5 -19 12
-35 16 -17 4 -30 11 -30 16 0 5 -11 9 -24 9 -14 0 -28 4 -31 10 -7 12 -92 50
-111 50 -8 0 -22 4 -32 8 -87 43 -109 52 -124 52 -9 0 -19 4 -22 9 -3 5 -20
11 -38 14 -45 7 -119 28 -140 38 -10 5 -33 9 -52 9 -18 0 -39 6 -45 14 -7 8
-39 17 -71 21 -33 4 -63 11 -66 16 -3 5 -31 9 -63 9 -31 0 -61 4 -66 9 -6 5
-49 11 -98 13 -48 2 -93 10 -99 16 -9 9 -117 12 -408 12 -291 0 -399 -3 -408
-12z m2169 -2128 c208 -64 325 -305 251 -513 -19 -52 -118 -198 -262 -387 -25
-32 -67 -89 -95 -126 -27 -37 -68 -90 -90 -118 -46 -57 -155 -204 -200 -270
-16 -23 -51 -67 -76 -97 -26 -30 -71 -88 -100 -131 -30 -42 -121 -164 -204
-272 -82 -108 -186 -245 -230 -304 -126 -171 -172 -232 -230 -307 -30 -38 -87
-113 -126 -165 -229 -305 -279 -369 -328 -423 -69 -74 -122 -110 -200 -137
-130 -43 -276 -19 -386 66 -91 69 -358 259 -582 413 -60 41 -148 104 -198 141
-49 36 -169 122 -265 190 -440 311 -476 342 -524 444 -108 228 9 493 248 561
86 25 202 17 282 -19 66 -29 224 -138 509 -346 28 -20 111 -80 185 -134 74
-53 169 -122 210 -154 41 -32 104 -78 140 -103 36 -24 87 -61 115 -81 27 -21
55 -38 61 -38 6 0 41 43 79 96 37 53 91 124 119 158 28 33 89 113 134 176 45
63 127 174 182 245 113 147 387 510 530 705 19 26 61 81 92 121 168 217 317
415 421 557 125 171 186 225 290 257 64 20 175 18 248 -5z"/>
</g>
</svg>
